<svg version="1.1" xmlns="http://www.w3.org/2000/svg" viewBox="0 0 500 500" width="500" height="500">
	<style>
		.s0 { fill: #0796dd } 
	</style>
	<g id="svg">
		<path class="s0" d="m232.03 39.2h11l16 8 23 13 24 14 26 15 28 16 24 14 14 8 10 7 7 8 2 8v186l-3 9-5 6-14 9-23 13-26 15-24 14-26 15-24 14-23 13-10 3-9-1-16-8-24-14-26-15-26-15-24-14-28-16-18-11-6-5-4-8-1-6v-183l3-10 7-8 13-8 26-15 24-14 28-16 24-14 28-16 16-9zm0 58l-15 8-4 4-1 2v81l4 6 9 6 26 15 4 2h5l2-2 1-39 2-5h6l26 14 14 8 5 5 2 5 1 125 3 7 4 1 10-5 17-10 8-6 4-5 1-4v-134l-3-8-7-6-28-16-19-11-19-11-26-15-18-10-4-2zm-86 49l-28 16-7 6-2 4-1 6v129l2 8 6 7 26 15 28 16 24 14 28 16 10 5 7 1 10-4 11-7 2-3v-82l-3-5-5-4-26-15-10-5-4 1-2 2-1 40-1 3-4 1-16-8-26-14-5-4-2-3-1-5-1-125-3-6z"/>
	</g>
</svg>